<svg xmlns="http://www.w3.org/2000/svg" width="1400" height="760" viewBox="0 0 1400 760" fill="none">
<defs>
  <filter id="shadow" x="-20%" y="-20%" width="140%" height="160%">
    <feDropShadow dx="0" dy="4" stdDeviation="6" flood-color="#0f172a" flood-opacity="0.10"/>
  </filter>
  <marker id="arrowHead" markerWidth="10" markerHeight="10" refX="8" refY="5" orient="auto" markerUnits="strokeWidth">
    <path d="M0,0 L10,5 L0,10 z" fill="#64748b"/>
  </marker>
  <linearGradient id="bg" x1="0" x2="0" y1="0" y2="1">
    <stop offset="0%" stop-color="#fafafa"/>
    <stop offset="100%" stop-color="#f8fafc"/>
  </linearGradient>
</defs>

<rect width="1400" height="760" fill="url(#bg)"/>
<rect x="18" y="18" width="1364" height="724" rx="24" fill="#ffffff" stroke="#e2e8f0"/>
<text x="42" y="58" font-family="Inter, Arial, sans-serif" font-size="26" font-weight="700" fill="#0f172a">Project Plan — Gantt Prototype</text>
<text x="42" y="84" font-family="Inter, Arial, sans-serif" font-size="13" fill="#64748b">Sequential tasks with dependency arrows from blue source handles to yellow target handles</text>

<rect x="36" y="110" width="250" height="540" rx="18" fill="#fcfcfd" stroke="#e5e7eb"/>
<rect x="270" y="110" width="1094" height="540" rx="18" fill="#fcfcfd" stroke="#e5e7eb"/>

<text x="56" y="146" font-family="Inter, Arial, sans-serif" font-size="13" font-weight="700" fill="#334155">Task</text>
<text x="195" y="146" font-family="Inter, Arial, sans-serif" font-size="13" font-weight="700" fill="#334155">Owner</text>
<line x1="300" y1="154" x2="300" y2="650" stroke="#eef2f7"/><text x="327.0" y="136" text-anchor="middle" font-family="Inter, Arial, sans-serif" font-size="12" font-weight="600" fill="#475569">D1</text><line x1="354" y1="154" x2="354" y2="650" stroke="#eef2f7"/><text x="381.0" y="136" text-anchor="middle" font-family="Inter, Arial, sans-serif" font-size="12" font-weight="600" fill="#475569">D2</text><line x1="408" y1="154" x2="408" y2="650" stroke="#eef2f7"/><text x="435.0" y="136" text-anchor="middle" font-family="Inter, Arial, sans-serif" font-size="12" font-weight="600" fill="#475569">D3</text><line x1="462" y1="154" x2="462" y2="650" stroke="#eef2f7"/><text x="489.0" y="136" text-anchor="middle" font-family="Inter, Arial, sans-serif" font-size="12" font-weight="600" fill="#475569">D4</text><line x1="516" y1="154" x2="516" y2="650" stroke="#eef2f7"/><text x="543.0" y="136" text-anchor="middle" font-family="Inter, Arial, sans-serif" font-size="12" font-weight="600" fill="#475569">D5</text><line x1="570" y1="154" x2="570" y2="650" stroke="#eef2f7"/><text x="597.0" y="136" text-anchor="middle" font-family="Inter, Arial, sans-serif" font-size="12" font-weight="600" fill="#475569">D6</text><line x1="624" y1="154" x2="624" y2="650" stroke="#eef2f7"/><text x="651.0" y="136" text-anchor="middle" font-family="Inter, Arial, sans-serif" font-size="12" font-weight="600" fill="#475569">D7</text><line x1="678" y1="154" x2="678" y2="650" stroke="#eef2f7"/><text x="705.0" y="136" text-anchor="middle" font-family="Inter, Arial, sans-serif" font-size="12" font-weight="600" fill="#475569">D8</text><line x1="732" y1="154" x2="732" y2="650" stroke="#eef2f7"/><text x="759.0" y="136" text-anchor="middle" font-family="Inter, Arial, sans-serif" font-size="12" font-weight="600" fill="#475569">D9</text><line x1="786" y1="154" x2="786" y2="650" stroke="#eef2f7"/><text x="813.0" y="136" text-anchor="middle" font-family="Inter, Arial, sans-serif" font-size="12" font-weight="600" fill="#475569">D10</text><line x1="840" y1="154" x2="840" y2="650" stroke="#eef2f7"/><text x="867.0" y="136" text-anchor="middle" font-family="Inter, Arial, sans-serif" font-size="12" font-weight="600" fill="#475569">D11</text><line x1="894" y1="154" x2="894" y2="650" stroke="#eef2f7"/><text x="921.0" y="136" text-anchor="middle" font-family="Inter, Arial, sans-serif" font-size="12" font-weight="600" fill="#475569">D12</text><line x1="948" y1="154" x2="948" y2="650" stroke="#eef2f7"/><text x="975.0" y="136" text-anchor="middle" font-family="Inter, Arial, sans-serif" font-size="12" font-weight="600" fill="#475569">D13</text><line x1="1002" y1="154" x2="1002" y2="650" stroke="#eef2f7"/><text x="1029.0" y="136" text-anchor="middle" font-family="Inter, Arial, sans-serif" font-size="12" font-weight="600" fill="#475569">D14</text><line x1="1056" y1="154" x2="1056" y2="650" stroke="#eef2f7"/><text x="1083.0" y="136" text-anchor="middle" font-family="Inter, Arial, sans-serif" font-size="12" font-weight="600" fill="#475569">D15</text><line x1="1110" y1="154" x2="1110" y2="650" stroke="#eef2f7"/><text x="1137.0" y="136" text-anchor="middle" font-family="Inter, Arial, sans-serif" font-size="12" font-weight="600" fill="#475569">D16</text><line x1="1164" y1="154" x2="1164" y2="650" stroke="#eef2f7"/><text x="1191.0" y="136" text-anchor="middle" font-family="Inter, Arial, sans-serif" font-size="12" font-weight="600" fill="#475569">D17</text><line x1="1218" y1="154" x2="1218" y2="650" stroke="#eef2f7"/><text x="1245.0" y="136" text-anchor="middle" font-family="Inter, Arial, sans-serif" font-size="12" font-weight="600" fill="#475569">D18</text><line x1="1272" y1="154" x2="1272" y2="650" stroke="#eef2f7"/><line x1="36" y1="154" x2="1364" y2="154" stroke="#eef2f7"/><line x1="36" y1="216" x2="1364" y2="216" stroke="#eef2f7"/><line x1="36" y1="278" x2="1364" y2="278" stroke="#eef2f7"/><line x1="36" y1="340" x2="1364" y2="340" stroke="#eef2f7"/><line x1="36" y1="402" x2="1364" y2="402" stroke="#eef2f7"/><line x1="36" y1="464" x2="1364" y2="464" stroke="#eef2f7"/><line x1="36" y1="526" x2="1364" y2="526" stroke="#eef2f7"/><line x1="36" y1="588" x2="1364" y2="588" stroke="#eef2f7"/><line x1="36" y1="650" x2="1364" y2="650" stroke="#eef2f7"/><text x="56" y="143" font-family="Inter, Arial, sans-serif" font-size="14" font-weight="600" fill="#0f172a">Discovery</text><text x="56" y="162" font-family="Inter, Arial, sans-serif" font-size="12" fill="#64748b">Waterfall A</text><text x="200" y="152" font-family="Inter, Arial, sans-serif" font-size="12" fill="#475569">UX</text><rect x="316.2" y="128.0" width="118.8" height="24" rx="12" fill="#7c3aed" filter="url(#shadow)"/><circle cx="316.2" cy="140.0" r="5.5" fill="#facc15" stroke="#fff" stroke-width="2"/><circle cx="375.6" cy="140.0" r="5.5" fill="#ef4444" stroke="#fff" stroke-width="2"/><circle cx="435.0" cy="140.0" r="5.5" fill="#3b82f6" stroke="#fff" stroke-width="2"/><rect x="391.0" y="132.0" width="34" height="16" rx="8" fill="rgba(255,255,255,0.22)"/><text x="408.0" y="144.0" text-anchor="middle" font-family="Inter, Arial, sans-serif" font-size="10" font-weight="700" fill="#fff">50%</text><text x="56" y="205" font-family="Inter, Arial, sans-serif" font-size="14" font-weight="600" fill="#0f172a">Wireframes</text><text x="56" y="224" font-family="Inter, Arial, sans-serif" font-size="12" fill="#64748b">Waterfall A</text><text x="200" y="214" font-family="Inter, Arial, sans-serif" font-size="12" fill="#475569">UX</text><rect x="456.6" y="190.0" width="108.0" height="24" rx="12" fill="#06b6d4" filter="url(#shadow)"/><circle cx="456.6" cy="202.0" r="5.5" fill="#facc15" stroke="#fff" stroke-width="2"/><circle cx="510.6" cy="202.0" r="5.5" fill="#ef4444" stroke="#fff" stroke-width="2"/><circle cx="564.6" cy="202.0" r="5.5" fill="#3b82f6" stroke="#fff" stroke-width="2"/><rect x="520.6" y="194.0" width="34" height="16" rx="8" fill="rgba(255,255,255,0.22)"/><text x="537.6" y="206.0" text-anchor="middle" font-family="Inter, Arial, sans-serif" font-size="10" font-weight="700" fill="#fff">55%</text><text x="56" y="267" font-family="Inter, Arial, sans-serif" font-size="14" font-weight="600" fill="#0f172a">API Draft</text><text x="56" y="286" font-family="Inter, Arial, sans-serif" font-size="12" fill="#64748b">Waterfall A</text><text x="200" y="276" font-family="Inter, Arial, sans-serif" font-size="12" fill="#475569">BE</text><rect x="586.2" y="252.0" width="129.6" height="24" rx="12" fill="#f59e0b" filter="url(#shadow)"/><circle cx="586.2" cy="264.0" r="5.5" fill="#facc15" stroke="#fff" stroke-width="2"/><circle cx="651.0" cy="264.0" r="5.5" fill="#ef4444" stroke="#fff" stroke-width="2"/><circle cx="715.8" cy="264.0" r="5.5" fill="#3b82f6" stroke="#fff" stroke-width="2"/><rect x="671.8" y="256.0" width="34" height="16" rx="8" fill="rgba(255,255,255,0.22)"/><text x="688.8" y="268.0" text-anchor="middle" font-family="Inter, Arial, sans-serif" font-size="10" font-weight="700" fill="#fff">60%</text><text x="56" y="329" font-family="Inter, Arial, sans-serif" font-size="14" font-weight="600" fill="#0f172a">Frontend Build</text><text x="56" y="348" font-family="Inter, Arial, sans-serif" font-size="12" fill="#64748b">Waterfall A</text><text x="200" y="338" font-family="Inter, Arial, sans-serif" font-size="12" fill="#475569">FE</text><rect x="726.6" y="314.0" width="162.0" height="24" rx="12" fill="#10b981" filter="url(#shadow)"/><circle cx="726.6" cy="326.0" r="5.5" fill="#facc15" stroke="#fff" stroke-width="2"/><circle cx="807.6" cy="326.0" r="5.5" fill="#ef4444" stroke="#fff" stroke-width="2"/><circle cx="888.6" cy="326.0" r="5.5" fill="#3b82f6" stroke="#fff" stroke-width="2"/><rect x="844.6" y="318.0" width="34" height="16" rx="8" fill="rgba(255,255,255,0.22)"/><text x="861.6" y="330.0" text-anchor="middle" font-family="Inter, Arial, sans-serif" font-size="10" font-weight="700" fill="#fff">65%</text><text x="56" y="391" font-family="Inter, Arial, sans-serif" font-size="14" font-weight="600" fill="#0f172a">Data Model</text><text x="56" y="410" font-family="Inter, Arial, sans-serif" font-size="12" fill="#64748b">Waterfall B</text><text x="200" y="400" font-family="Inter, Arial, sans-serif" font-size="12" fill="#475569">DB</text><rect x="354.0" y="376.0" width="145.8" height="24" rx="12" fill="#ec4899" filter="url(#shadow)"/><circle cx="354.0" cy="388.0" r="5.5" fill="#facc15" stroke="#fff" stroke-width="2"/><circle cx="426.9" cy="388.0" r="5.5" fill="#ef4444" stroke="#fff" stroke-width="2"/><circle cx="499.8" cy="388.0" r="5.5" fill="#3b82f6" stroke="#fff" stroke-width="2"/><rect x="455.8" y="380.0" width="34" height="16" rx="8" fill="rgba(255,255,255,0.22)"/><text x="472.8" y="392.0" text-anchor="middle" font-family="Inter, Arial, sans-serif" font-size="10" font-weight="700" fill="#fff">70%</text><text x="56" y="453" font-family="Inter, Arial, sans-serif" font-size="14" font-weight="600" fill="#0f172a">Permissions</text><text x="56" y="472" font-family="Inter, Arial, sans-serif" font-size="12" fill="#64748b">Waterfall B</text><text x="200" y="462" font-family="Inter, Arial, sans-serif" font-size="12" fill="#475569">BE</text><rect x="521.4" y="438.0" width="118.8" height="24" rx="12" fill="#6366f1" filter="url(#shadow)"/><circle cx="521.4" cy="450.0" r="5.5" fill="#facc15" stroke="#fff" stroke-width="2"/><circle cx="580.8" cy="450.0" r="5.5" fill="#ef4444" stroke="#fff" stroke-width="2"/><circle cx="640.2" cy="450.0" r="5.5" fill="#3b82f6" stroke="#fff" stroke-width="2"/><rect x="596.2" y="442.0" width="34" height="16" rx="8" fill="rgba(255,255,255,0.22)"/><text x="613.2" y="454.0" text-anchor="middle" font-family="Inter, Arial, sans-serif" font-size="10" font-weight="700" fill="#fff">75%</text><text x="56" y="515" font-family="Inter, Arial, sans-serif" font-size="14" font-weight="600" fill="#0f172a">Notifications</text><text x="56" y="534" font-family="Inter, Arial, sans-serif" font-size="12" fill="#64748b">Waterfall B</text><text x="200" y="524" font-family="Inter, Arial, sans-serif" font-size="12" fill="#475569">FE</text><rect x="661.8" y="500.0" width="135.0" height="24" rx="12" fill="#ef4444" filter="url(#shadow)"/><circle cx="661.8" cy="512.0" r="5.5" fill="#facc15" stroke="#fff" stroke-width="2"/><circle cx="729.3" cy="512.0" r="5.5" fill="#ef4444" stroke="#fff" stroke-width="2"/><circle cx="796.8" cy="512.0" r="5.5" fill="#3b82f6" stroke="#fff" stroke-width="2"/><rect x="752.8" y="504.0" width="34" height="16" rx="8" fill="rgba(255,255,255,0.22)"/><text x="769.8" y="516.0" text-anchor="middle" font-family="Inter, Arial, sans-serif" font-size="10" font-weight="700" fill="#fff">80%</text><text x="56" y="577" font-family="Inter, Arial, sans-serif" font-size="14" font-weight="600" fill="#0f172a">QA Pass</text><text x="56" y="596" font-family="Inter, Arial, sans-serif" font-size="12" fill="#64748b">Waterfall B</text><text x="200" y="586" font-family="Inter, Arial, sans-serif" font-size="12" fill="#475569">QA</text><rect x="823.8" y="562.0" width="118.8" height="24" rx="12" fill="#14b8a6" filter="url(#shadow)"/><circle cx="823.8" cy="574.0" r="5.5" fill="#facc15" stroke="#fff" stroke-width="2"/><circle cx="883.2" cy="574.0" r="5.5" fill="#ef4444" stroke="#fff" stroke-width="2"/><circle cx="942.6" cy="574.0" r="5.5" fill="#3b82f6" stroke="#fff" stroke-width="2"/><rect x="898.6" y="566.0" width="34" height="16" rx="8" fill="rgba(255,255,255,0.22)"/><text x="915.6" y="578.0" text-anchor="middle" font-family="Inter, Arial, sans-serif" font-size="10" font-weight="700" fill="#fff">85%</text><path d="M 435.0 140.0 H 438.6 V 202.0 H 448.6" stroke="#64748b" stroke-width="2.5" fill="none" marker-end="url(#arrowHead)"/><path d="M 564.6 202.0 H 568.2 V 264.0 H 578.2" stroke="#64748b" stroke-width="2.5" fill="none" marker-end="url(#arrowHead)"/><path d="M 715.8 264.0 H 708.6 V 326.0 H 718.6" stroke="#64748b" stroke-width="2.5" fill="none" marker-end="url(#arrowHead)"/><path d="M 499.8 388.0 H 503.4 V 450.0 H 513.4" stroke="#64748b" stroke-width="2.5" fill="none" marker-end="url(#arrowHead)"/><path d="M 640.2 450.0 H 643.8 V 512.0 H 653.8" stroke="#64748b" stroke-width="2.5" fill="none" marker-end="url(#arrowHead)"/><path d="M 796.8 512.0 H 805.8 V 574.0 H 815.8" stroke="#64748b" stroke-width="2.5" fill="none" marker-end="url(#arrowHead)"/><text x="60" y="664" font-family="Inter, Arial, sans-serif" font-size="12" font-weight="700" fill="#334155">Handles</text><circle cx="60" cy="682" r="6" fill="#facc15"/><text x="74" y="686" font-family="Inter, Arial, sans-serif" font-size="12" fill="#475569">Target start</text><circle cx="230" cy="682" r="6" fill="#ef4444"/><text x="244" y="686" font-family="Inter, Arial, sans-serif" font-size="12" fill="#475569">Move/resize</text><circle cx="400" cy="682" r="6" fill="#3b82f6"/><text x="414" y="686" font-family="Inter, Arial, sans-serif" font-size="12" fill="#475569">Dependency source</text></svg>